# xmcd
#
# Track frame offsets: 
#        150
#        18146
#        33686
#        52864
#        66280
#        85342
#        113708
#        136979
#        151508
#        166283
#        175410
#        212911
#        232749
#
# Disc length: 3389 seconds
#
# Revision: 1
# Processed by: cddbd v1.5.2PL0 Copyright (c) Steve Scherf et al.
# Submitted via: ExactAudioCopy v1.0b6
#
DISCID=9e0d3b0d
DTITLE=Rival Sons - Head Down
DYEAR=2012
DGENRE=Classic Rock
TTITLE0=Keep On Swinging
TTITLE1=Wild Animal
TTITLE2=You Want To
TTITLE3=Until The Sun Comes
TTITLE4=Run From Revelation
TTITLE5=Jordan
TTITLE6=All The Way
TTITLE7=The Heist
TTITLE8=Three Fingers
TTITLE9=Nava
TTITLE10=Manifest Destiny Pt.1
TTITLE11=Manifest Destiny Pt.2
TTITLE12=True
EXTD=
EXTT0=
EXTT1=
EXTT2=
EXTT3=
EXTT4=
EXTT5=
EXTT6=
EXTT7=
EXTT8=
EXTT9=
EXTT10=
EXTT11=
EXTT12=
PLAYORDER=
